# xmcd
#
# Track frame offsets: 
#        150
#        13730
#        19952
#        32112
#        44007
#        54735
#        68572
#        81540
#        95635
#        107022
#        117612
#        129980
#        138727
#        149012
#        163035
#        179572
#        197105
#        208337
#        223102
#        236090
#        247937
#        267480
#        281497
#        295837
#        307422
#        319855
#
# Disc length: 4497 seconds
#
# Revision: 5
# Processed by: cddbd v1.5.2PL0 Copyright (c) Steve Scherf et al.
# Submitted via: ExactAudioCopy v0.99pb5
#
DISCID=b1118f1a
DTITLE=Jesse Fuller - Brother Lowdown
DYEAR=1992
DGENRE=
TTITLE0=San Francisco Bay Blues
TTITLE1=Everybody Works At My House But My Old Man
TTITLE2=Beale Street Blues
TTITLE3=Let Me Hold You In My Arms Tonight
TTITLE4=Where Could I Go To But The Lord
TTITLE5=You're No Good
TTITLE6=I Want A Girl (Just Like The Girl That Married Dear Old Dad)
TTITLE7=Old Man Mose
TTITLE8=Crazy Waltz
TTITLE9=Brother Lowdown
TTITLE10=Pretty Little Girl Walkin' Down The Street
TTITLE11=The Dozens
TTITLE12=I've Been So Doggone Lonesome
TTITLE13=Animal Farm
TTITLE14=Red River Blues
TTITLE15=How Long Blues
TTITLE16=You Can't Keep A Good Man Down
TTITLE17=Key To The Highway
TTITLE18=Tickling The Strings
TTITLE19=Jesse's New Midnight Special
TTITLE20=Stranger Blues
TTITLE21=Fables Aren't Nothing But Doggone Lies
TTITLE22=Brownskin Gal (I've Got My Eyes On You)
TTITLE23=Cincinnati Blues
TTITLE24=Hump In Your Back
TTITLE25=Trouble If I Don't Use My Head
EXTD=
EXTT0=
EXTT1=
EXTT2=
EXTT3=
EXTT4=
EXTT5=
EXTT6=
EXTT7=
EXTT8=
EXTT9=
EXTT10=
EXTT11=
EXTT12=
EXTT13=
EXTT14=
EXTT15=
EXTT16=
EXTT17=
EXTT18=
EXTT19=
EXTT20=
EXTT21=
EXTT22=
EXTT23=
EXTT24=
EXTT25=
PLAYORDER=
